<?xml version="1.0" encoding="UTF-8"?>
      <svg width="800" height="400" viewBox="0 0 800 400" xmlns="http://www.w3.org/2000/svg">
        <defs>
          <!-- Gradients -->
          <linearGradient id="bgGradient" x1="0%" y1="0%" x2="100%" y2="100%">
            <stop offset="0%" style="stop-color:#1a1c29" /> 
            <stop offset="100%" style="stop-color:#2d3748" /> 
          </linearGradient>
          
          <linearGradient id="cardGradient" x1="0%" y1="0%" x2="0%" y2="100%">
             <stop offset="0%" style="stop-color:rgba(255, 255, 255, 0.05)" />
             <stop offset="100%" style="stop-color:rgba(255, 255, 255, 0.02)" />
          </linearGradient>

          <linearGradient id="hpLog" x1="0%" y1="0%" x2="100%" y2="0%">
            <stop offset="0%" style="stop-color:#ff4d4d" />
            <stop offset="100%" style="stop-color:#ff9e9e" />
          </linearGradient>
          
          <linearGradient id="xpLog" x1="0%" y1="0%" x2="100%" y2="0%">
            <stop offset="0%" style="stop-color:#4d94ff" />
            <stop offset="100%" style="stop-color:#99c2ff" />
          </linearGradient>

          <!-- Drop Shadow -->
          <filter id="dropshadow" height="130%">
            <feGaussianBlur in="SourceAlpha" stdDeviation="3"/> 
            <feOffset dx="2" dy="2" result="offsetblur"/> 
            <feComponentTransfer>
              <feFuncA type="linear" slope="0.5"/> 
            </feComponentTransfer>
            <feMerge> 
              <feMergeNode/>
              <feMergeNode in="SourceGraphic"/> 
            </feMerge>
          </filter>
        </defs>

        <style>
          .text { font-family: -apple-system, BlinkMacSystemFont, 'Segoe UI', Roboto, Helvetica, Arial, sans-serif; fill: #e0e0e0; }
          .title { font-size: 28px; font-weight: 700; fill: #fff; }
          .subtitle { font-size: 16px; font-weight: 400; fill: #a0aec0; }
          .stat-label { font-size: 14px; fill: #a0aec0; font-weight: 600; letter-spacing: 0.5px; }
          .stat-value { font-size: 14px; font-weight: bold; fill: #fff; }
          
          .bar-bg { fill: rgba(255, 255, 255, 0.1); rx: 6; }
          .hp-bar { fill: url(#hpLog); rx: 6; transition: width 1s ease-out; }
          .xp-bar { fill: url(#xpLog); rx: 6; transition: width 1s ease-out; }
          
          .card-bg { fill: url(#bgGradient); rx: 16; }
          .glass-panel { fill: url(#cardGradient); stroke: rgba(255, 255, 255, 0.1); stroke-width: 1; rx: 12; }
          
          /* Animations */
          @keyframes float {
            0% { transform: translateY(0px); }
            50% { transform: translateY(-8px); }
            100% { transform: translateY(0px); }
          }
          
          .pet-anim { 
             animation: float 4s ease-in-out infinite; 
             transform-origin: center;
          }
          
          .icon { fill: #a0aec0; }
        </style>
        
        <!-- Background -->
        <rect x="0" y="0" width="800" height="400" class="card-bg" />
        
        <!-- Glass Panel Overlay -->
        <rect x="20" y="20" width="760" height="360" class="glass-panel" />

        <!-- Pet Section -->
        <g transform="translate(60, 60)">
             <g class="pet-anim">
                
    <!-- Baby Dragon -->
    <defs>
      <linearGradient id="babyBody" x1="0%" y1="0%" x2="100%" y2="100%">
        <stop offset="0%" style="stop-color:#b388ff" /> <!-- Light Purple -->
        <stop offset="100%" style="stop-color:#651fff" /> <!-- Deep Purple -->
      </linearGradient>
    </defs>
    <g transform="translate(100, 100) scale(2.2)">
      <!-- Tail -->
      <path d="M-20,20 Q-40,30 -30,10" fill="none" stroke="#651fff" stroke-width="4" stroke-linecap="round"/>
      
      <!-- Body -->
      <circle cx="0" cy="10" r="20" fill="url(#babyBody)" stroke="#311b92" stroke-width="1.5"/>
      
      <!-- Head -->
      <circle cx="0" cy="-15" r="18" fill="url(#babyBody)" stroke="#311b92" stroke-width="1.5"/>
      
      <!-- Eyes -->
      <circle cx="-6" cy="-15" r="4" fill="white"/>
      <circle cx="-6" cy="-15" r="1.5" fill="black"/>
      <circle cx="6" cy="-15" r="4" fill="white"/>
      <circle cx="6" cy="-15" r="1.5" fill="black"/>
      
      <!-- Little Wings -->
      <path d="M20,10 Q35,-5 20,-10" fill="#b388ff" stroke="#311b92" stroke-width="1"/>
      <path d="M-20,10 Q-35,-5 -20,-10" fill="#b388ff" stroke="#311b92" stroke-width="1"/>
      
      <!-- Horns -->
      <path d="M-5,-30 L-8,-40 L-2,-32 Z" fill="#ede7f6" stroke="#311b92" stroke-width="1"/>
      <path d="M5,-30 L8,-40 L2,-32 Z" fill="#ede7f6" stroke="#311b92" stroke-width="1"/>
    </g>
  
             </g>
        </g>

        <!-- Stats Section -->
        <g transform="translate(360, 70)">
          <!-- Header -->
          <text x="0" y="10" class="text title">GitGotchi <tspan fill="#a0aec0" font-weight="300">(Lvl 2)</tspan></text>
          <text x="0" y="40" class="text subtitle">The Digital Guardian</text>
          
          <line x1="0" y1="60" x2="400" y2="60" stroke="rgba(255,255,255,0.1)" stroke-width="1" />

          <!-- HP Bar -->
          <g transform="translate(0, 90)">
            <path class="icon" d="M10,0 C15,-5 20,0 10,10 C0,0 5,-5 10,0" transform="scale(1.2)" />
            <text x="30" y="10" class="text stat-label">HEALTH</text>
            <text x="380" y="10" text-anchor="end" class="text stat-value">100 / 100</text>
            
            <rect x="0" y="20" width="380" height="12" class="bar-bg" />
            <rect x="0" y="20" width="380" height="12" class="hp-bar" filter="url(#dropshadow)" />
          </g>

          <!-- XP Bar -->
          <g transform="translate(0, 150)">
            <path class="icon" d="M10,0 L12,7 L19,7 L14,11 L16,18 L10,14 L4,18 L6,11 L1,7 L8,7 Z" transform="translate(0,-5) scale(0.9)" />
            <text x="30" y="10" class="text stat-label">EXPERIENCE</text>
            <text x="380" y="10" text-anchor="end" class="text stat-value">150 / 500 XP</text>

            <rect x="0" y="20" width="380" height="12" class="bar-bg" />
            <rect x="0" y="20" width="47.5" height="12" class="xp-bar" filter="url(#dropshadow)" />
          </g>
          
          <!-- Info Grid -->
          <g transform="translate(0, 210)">
             <!-- Mood -->
             <g>
                <circle cx="10" cy="10" r="15" fill="rgba(255,255,255,0.05)" />
                <text x="10" y="15" text-anchor="middle" font-size="16">😊</text>
                <text x="35" y="5" class="text stat-label" font-size="12">MOOD</text>
                <text x="35" y="22" class="text stat-value" fill="#4caf50">EXCITED</text>
             </g>
             
             <!-- Streak -->
             <g transform="translate(140, 0)">
                <circle cx="10" cy="10" r="15" fill="rgba(255,255,255,0.05)" />
                <text x="10" y="15" text-anchor="middle" font-size="16">🔥</text>
                <text x="35" y="5" class="text stat-label" font-size="12">STREAK</text>
                <text x="35" y="22" class="text stat-value">13 DAYS</text>
             </g>
             
             <!-- Status -->
             <g transform="translate(280, 0)">
                <circle cx="10" cy="10" r="15" fill="rgba(255,255,255,0.05)" />
                <text x="10" y="15" text-anchor="middle" font-size="16">⭐</text>
                <text x="35" y="5" class="text stat-label" font-size="12">STATUS</text>
                <text x="35" y="22" class="text stat-value">ACTIVE</text>
             </g>
          </g>
        </g>
        
      </svg>
    